<svg id="visual" viewBox="0 0 900 600" width="900" height="600" xmlns="http://www.w3.org/2000/svg"
  xmlns:xlink="http://www.w3.org/1999/xlink" version="1.1">
  <rect x="0" y="0" width="900" height="600" fill="#58788f"></rect>
  <g transform="translate(69.79217995133388 631.3884920449444)">
    <path
      d="M255.5 -429C361.3 -381.4 498 -373.9 547.1 -309.1C596.2 -244.3 557.6 -122.2 535.9 -12.5C514.3 97.2 509.6 194.3 478.3 289.9C446.9 385.4 389 479.4 304.8 499.5C220.7 519.7 110.3 466.1 10.8 447.3C-88.7 428.6 -177.3 444.7 -296.4 444.7C-415.5 444.7 -565 428.6 -641.1 351.8C-717.3 275 -720.2 137.5 -699.5 11.9C-678.9 -113.7 -634.8 -227.3 -553.1 -294.6C-471.4 -361.9 -352.2 -382.7 -253.8 -434.5C-155.3 -486.4 -77.7 -569.2 -1.4 -566.7C74.8 -564.3 149.7 -476.6 255.5 -429"
      fill="#FCAF3C"></path>
  </g>
</svg>