<svg id="visual" viewBox="0 0 900 600" width="900" height="600" xmlns="http://www.w3.org/2000/svg"
  xmlns:xlink="http://www.w3.org/1999/xlink" version="1.1">
  <rect x="0" y="0" width="900" height="600" fill="#001122"></rect>
  <g transform="translate(-25.15418000024431 564.7922255814119)">
    <path
      d="M161.9 -282.7C228.4 -242 313.8 -236.2 384.2 -194.9C454.5 -153.7 509.7 -76.8 523.3 7.8C536.9 92.5 508.8 185 470.8 282.4C432.9 379.9 385.2 482.2 305.1 503.6C225 525 112.5 465.5 35.2 404.6C-42.2 343.7 -84.4 281.5 -179.9 269C-275.5 256.5 -424.4 293.7 -464.3 257.2C-504.2 220.7 -435.1 110.3 -413 12.8C-390.9 -84.8 -415.9 -169.7 -394.1 -237.6C-372.4 -305.6 -303.9 -356.8 -230.5 -393.5C-157 -430.3 -78.5 -452.6 -15.4 -425.9C47.7 -399.2 95.3 -323.5 161.9 -282.7"
      fill="#FCAF3C"></path>
  </g>
</svg>