<svg id="visual" viewBox="0 0 960 540" width="960" height="540" xmlns="http://www.w3.org/2000/svg" xmlns:xlink="http://www.w3.org/1999/xlink" version="1.1"><rect x="0" y="0" width="960" height="540" fill="#031b2c"></rect><path d="M0 268L20 273.5C40 279 80 290 120 303C160 316 200 331 240 330.2C280 329.3 320 312.7 360 300.7C400 288.7 440 281.3 480 281C520 280.7 560 287.3 600 294C640 300.7 680 307.3 720 310C760 312.7 800 311.3 840 305.2C880 299 920 288 940 282.5L960 277L960 541L940 541C920 541 880 541 840 541C800 541 760 541 720 541C680 541 640 541 600 541C560 541 520 541 480 541C440 541 400 541 360 541C320 541 280 541 240 541C200 541 160 541 120 541C80 541 40 541 20 541L0 541Z" fill="#ff6f61"></path><path d="M0 320L20 325.2C40 330.3 80 340.7 120 349.5C160 358.3 200 365.7 240 360.8C280 356 320 339 360 338C400 337 440 352 480 352.5C520 353 560 339 600 332.8C640 326.7 680 328.3 720 326.8C760 325.3 800 320.7 840 325C880 329.3 920 342.7 940 349.3L960 356L960 541L940 541C920 541 880 541 840 541C800 541 760 541 720 541C680 541 640 541 600 541C560 541 520 541 480 541C440 541 400 541 360 541C320 541 280 541 240 541C200 541 160 541 120 541C80 541 40 541 20 541L0 541Z" fill="#ff6460"></path><path d="M0 374L20 372.7C40 371.3 80 368.7 120 365C160 361.3 200 356.7 240 363.8C280 371 320 390 360 399.7C400 409.3 440 409.7 480 405.2C520 400.7 560 391.3 600 382C640 372.7 680 363.3 720 367.3C760 371.3 800 388.7 840 397.7C880 406.7 920 407.3 940 407.7L960 408L960 541L940 541C920 541 880 541 840 541C800 541 760 541 720 541C680 541 640 541 600 541C560 541 520 541 480 541C440 541 400 541 360 541C320 541 280 541 240 541C200 541 160 541 120 541C80 541 40 541 20 541L0 541Z" fill="#ff5860"></path><path d="M0 379L20 379.3C40 379.7 80 380.3 120 382.7C160 385 200 389 240 389.8C280 390.7 320 388.3 360 394.3C400 400.3 440 414.7 480 416.2C520 417.7 560 406.3 600 402C640 397.7 680 400.3 720 406.2C760 412 800 421 840 420.5C880 420 920 410 940 405L960 400L960 541L940 541C920 541 880 541 840 541C800 541 760 541 720 541C680 541 640 541 600 541C560 541 520 541 480 541C440 541 400 541 360 541C320 541 280 541 240 541C200 541 160 541 120 541C80 541 40 541 20 541L0 541Z" fill="#ff4b60"></path><path d="M0 413L20 413.7C40 414.3 80 415.7 120 424.5C160 433.3 200 449.7 240 448.2C280 446.7 320 427.3 360 424.5C400 421.7 440 435.3 480 440.3C520 445.3 560 441.7 600 440.3C640 439 680 440 720 436.2C760 432.3 800 423.7 840 427.7C880 431.7 920 448.3 940 456.7L960 465L960 541L940 541C920 541 880 541 840 541C800 541 760 541 720 541C680 541 640 541 600 541C560 541 520 541 480 541C440 541 400 541 360 541C320 541 280 541 240 541C200 541 160 541 120 541C80 541 40 541 20 541L0 541Z" fill="#ff3c61"></path><path d="M0 474L20 470C40 466 80 458 120 457.3C160 456.7 200 463.3 240 468.5C280 473.7 320 477.3 360 479.5C400 481.7 440 482.3 480 476.7C520 471 560 459 600 453.5C640 448 680 449 720 456C760 463 800 476 840 482.2C880 488.3 920 487.7 940 487.3L960 487L960 541L940 541C920 541 880 541 840 541C800 541 760 541 720 541C680 541 640 541 600 541C560 541 520 541 480 541C440 541 400 541 360 541C320 541 280 541 240 541C200 541 160 541 120 541C80 541 40 541 20 541L0 541Z" fill="#ff2863"></path><path d="M0 514L20 511.7C40 509.3 80 504.7 120 505.3C160 506 200 512 240 512.3C280 512.7 320 507.3 360 507C400 506.7 440 511.3 480 510.3C520 509.3 560 502.7 600 497C640 491.3 680 486.7 720 490.3C760 494 800 506 840 506.3C880 506.7 920 495.3 940 489.7L960 484L960 541L940 541C920 541 880 541 840 541C800 541 760 541 720 541C680 541 640 541 600 541C560 541 520 541 480 541C440 541 400 541 360 541C320 541 280 541 240 541C200 541 160 541 120 541C80 541 40 541 20 541L0 541Z" fill="#ff0066"></path></svg>